HIERARCHY
ROOT Hips
{
	OFFSET 0.00000 0.00000 0.00000
	CHANNELS 6 Xposition Yposition Zposition Zrotation Yrotation Xrotation 
	JOINT LHipJoint
	{
		OFFSET 0 0 0
		CHANNELS 3 Zrotation Yrotation Xrotation
		JOINT LeftUpLeg
		{
			OFFSET 1.64577 -1.42384 0.94276
			CHANNELS 3 Zrotation Yrotation Xrotation
			JOINT LeftLeg
			{
				OFFSET 2.11538 -5.81197 0.00000
				CHANNELS 3 Zrotation Yrotation Xrotation
				JOINT LeftFoot
				{
					OFFSET 2.36541 -6.49893 0.00000
					CHANNELS 3 Zrotation Yrotation Xrotation
					JOINT LeftToeBase
					{
						OFFSET 0.17759 -0.48793 1.73865
						CHANNELS 3 Zrotation Yrotation Xrotation
						End Site
						{
							OFFSET 0.00000 -0.00000 0.91205
						}
					}
				}
			}
		}
	}
	JOINT RHipJoint
	{
		OFFSET 0 0 0
		CHANNELS 3 Zrotation Yrotation Xrotation
		JOINT RightUpLeg
		{
			OFFSET -1.43750 -1.42384 0.94276
			CHANNELS 3 Zrotation Yrotation Xrotation
			JOINT RightLeg
			{
				OFFSET -2.10480 -5.78291 0.00000
				CHANNELS 3 Zrotation Yrotation Xrotation
				JOINT RightFoot
				{
					OFFSET -2.34880 -6.45329 0.00000
					CHANNELS 3 Zrotation Yrotation Xrotation
					JOINT RightToeBase
					{
						OFFSET -0.22842 -0.62757 1.80469
						CHANNELS 3 Zrotation Yrotation Xrotation
						End Site
						{
							OFFSET -0.00000 -0.00000 0.95886
						}
					}
				}
			}
		}
	}
	JOINT LowerBack
	{
		OFFSET 0 0 0
		CHANNELS 3 Zrotation Yrotation Xrotation
		JOINT Spine
		{
			OFFSET 0.06217 1.93758 -0.49272
			CHANNELS 3 Zrotation Yrotation Xrotation
			JOINT Spine1
			{
				OFFSET -0.03114 2.03621 -0.05830
				CHANNELS 3 Zrotation Yrotation Xrotation
				JOINT Neck
				{
					OFFSET 0 0 0
					CHANNELS 3 Zrotation Yrotation Xrotation
					JOINT Neck1
					{
						OFFSET 0.04421 1.41010 0.26562
						CHANNELS 3 Zrotation Yrotation Xrotation
						JOINT Head
						{
							OFFSET -0.13407 1.43847 0.06181
							CHANNELS 3 Zrotation Yrotation Xrotation
							End Site
							{
								OFFSET -0.04980 1.45844 -0.00689
							}
						}
					}
				}
				JOINT LeftShoulder
				{
					OFFSET 0 0 0
					CHANNELS 3 Zrotation Yrotation Xrotation
					JOINT LeftArm
					{
						OFFSET 2.18382 1.47753 -0.35694
						CHANNELS 3 Zrotation Yrotation Xrotation
						JOINT LeftForeArm
						{
							OFFSET 5.05460 -0.00000 0.00000
							CHANNELS 3 Zrotation Yrotation Xrotation
							JOINT LeftHand
							{
								OFFSET 3.39013 -0.00000 0.00000
								CHANNELS 3 Zrotation Yrotation Xrotation
								JOINT LeftFingerBase
								{
									OFFSET 0 0 0
									CHANNELS 3 Zrotation Yrotation Xrotation
									JOINT LeftHandIndex1
									{
										OFFSET 0.57242 -0.00000 -0.00000
										CHANNELS 3 Zrotation Yrotation Xrotation
										End Site
										{
											OFFSET 0.46150 -0.00000 -0.00000
										}
									}
								}
								JOINT LThumb
								{
									OFFSET 0 0 0
									CHANNELS 3 Zrotation Yrotation Xrotation
									End Site
									{
										OFFSET 0.46855 -0.00000 0.46855
									}
								}
							}
						}
					}
				}
				JOINT RightShoulder
				{
					OFFSET 0 0 0
					CHANNELS 3 Zrotation Yrotation Xrotation
					JOINT RightArm
					{
						OFFSET -2.06033 1.72839 -0.47437
						CHANNELS 3 Zrotation Yrotation Xrotation
						JOINT RightForeArm
						{
							OFFSET -5.07010 -0.00000 0.00000
							CHANNELS 3 Zrotation Yrotation Xrotation
							JOINT RightHand
							{
								OFFSET -3.14957 -0.00000 -0.00000
								CHANNELS 3 Zrotation Yrotation Xrotation
								JOINT RightFingerBase
								{
									OFFSET 0 0 0
									CHANNELS 3 Zrotation Yrotation Xrotation
									JOINT RightHandIndex1
									{
										OFFSET -0.71819 -0.00000 -0.00000
										CHANNELS 3 Zrotation Yrotation Xrotation
										End Site
										{
											OFFSET -0.57902 -0.00000 -0.00000
										}
									}
								}
								JOINT RThumb
								{
									OFFSET 0 0 0
									CHANNELS 3 Zrotation Yrotation Xrotation
									End Site
									{
										OFFSET -0.58786 -0.00000 0.58786
									}
								}
							}
						}
					}
				}
			}
		}
	}
}
MOTION
Frames: 6
Frame Time: .0083333
-8.4476 14.2815 0.4085 -79.3766 85.9560 -63.1487 0.0000 0.0000 0.0000 -13.8840 -10.4113 -24.0950 11.5876 18.2108 64.6754 0.4825 -0.8605 -12.8509 1.4037 -7.4945 -21.1888 0.0000 0.0000 0.0000 29.3100 4.0590 -23.1678 -10.3469 -17.6004 60.6417 -0.0903 -12.3643 -18.7130 -2.5773 9.9772 -28.9028 2.0743 0.3156 21.8852 1.4409 1.4182 7.0857 -0.0075 0.8896 -4.4815 9.9353 3.9319 -2.1683 -13.0846 4.4838 -12.9876 -5.7454 2.4738 -2.8900 0.0000 0.0000 0.0000 -45.7465 -35.8262 9.0424 140.9034 -47.5255 -102.2300 -0.0000 0.0000 -36.6776 40.8621 10.3121 8.8027 -7.1250 0.0000 -0.0000 12.6232 43.1476 -0.5871 0.0000 0.0000 0.0000 30.0034 39.0724 17.7199 -114.7428 57.5554 -81.2520 0.0000 -0.0000 -49.2838 -25.4544 -2.5261 1.2019 7.1250 -0.0000 -0.0000 0.9237 -32.7761 0.2766
-7.7437 14.5536 0.4506 -77.7045 86.2177 -64.6387 0.0000 0.0000 0.0000 -14.7271 -6.3942 -17.0483 10.1149 17.4739 59.8715 0.0884 -0.4691 -5.4654 1.0379 -6.4794 -18.1820 0.0000 0.0000 0.0000 28.8356 0.1612 -17.1709 -9.1712 -16.9166 56.6802 0.5056 -13.8891 -11.6638 -1.9635 8.7896 -25.1392 1.4511 0.4740 20.7706 1.4770 1.4482 6.9897 0.3952 0.8971 -4.0316 10.6147 3.8427 -1.5374 -12.4575 4.5797 -9.1551 -5.5707 2.3892 -1.8650 -0.0000 -0.0000 0.0000 -44.4403 -33.2361 9.8608 143.4027 -45.9196 -104.0499 -0.0000 0.0000 -35.6181 39.2971 12.1880 9.8029 -7.1250 0.0000 -0.0000 11.3319 45.2660 0.0754 -0.0000 -0.0000 0.0000 25.4268 33.6070 18.8654 -116.4711 57.1792 -82.7075 0.0000 -0.0000 -47.6759 -23.9722 -2.1589 0.9596 7.1250 -0.0000 -0.0000 2.1102 -32.3375 0.6546
-7.0294 14.8899 0.5002 -76.8600 85.7680 -66.7473 0.0000 0.0000 0.0000 -13.9613 -2.6007 -11.5933 9.0300 16.8270 56.1938 0.0204 0.8461 2.5326 0.6018 -4.9657 -13.8108 0.0000 0.0000 0.0000 29.0206 -1.2866 -11.6839 -8.3749 -16.3882 53.9021 1.0642 -18.0884 -3.9872 -1.6752 8.1540 -23.1828 1.1303 0.4556 20.1226 1.8018 1.3695 7.1533 0.9530 0.8601 -3.5385 10.6328 3.9654 -1.8936 -11.3523 4.9147 -5.3113 -5.1384 2.4611 -0.6839 -0.0000 -0.0000 0.0000 -42.6349 -30.9210 10.1743 145.2005 -44.6684 -105.3278 -0.0000 0.0000 -36.0553 37.9677 11.2382 8.6476 -7.1250 0.0000 -0.0000 9.9934 43.8969 -0.2749 -0.0000 -0.0000 0.0000 21.9055 28.8493 20.3944 -117.5060 56.9387 -83.5761 0.0000 -0.0000 -47.0417 -22.4759 -3.0865 1.2761 7.1250 -0.0000 -0.0000 3.3687 -33.3060 0.9670
-6.3330 15.2773 0.5426 -79.9943 85.4721 -71.8880 0.0000 0.0000 0.0000 -13.2880 -1.0705 -7.8273 8.4565 16.4450 54.1908 0.1873 3.1873 7.6959 1.0096 -6.3933 -17.9300 0.0000 0.0000 0.0000 29.6102 -0.0044 -8.3101 -8.2276 -16.2841 53.3785 1.3529 -21.9389 1.3315 -2.7708 10.3145 -30.0013 1.3382 0.2062 19.4666 1.7864 1.0614 7.1642 0.8948 0.7106 -3.1823 10.9181 3.9944 -1.5531 -10.6324 5.0717 -3.3480 -4.9359 2.5143 -0.1657 0.0000 0.0000 0.0000 -40.7463 -27.5983 9.4097 147.6422 -42.8306 -107.0166 -0.0000 0.0000 -34.8916 37.3845 12.6075 9.4690 -7.1250 0.0000 -0.0000 9.5155 45.4833 0.1146 0.0000 0.0000 0.0000 18.7711 23.2667 22.2026 -118.3598 56.7314 -84.2908 0.0000 -0.0000 -48.6618 -22.3758 -4.0410 1.6617 7.1250 -0.0000 -0.0000 3.5121 -34.3324 0.9209
-5.6815 15.6731 0.5761 -78.7462 86.2692 -71.0006 0.0000 0.0000 0.0000 -14.1696 -1.2867 -7.0490 8.4484 16.4394 54.1623 0.2691 5.9036 9.5041 0.3346 -3.7173 -10.2827 0.0000 0.0000 0.0000 28.9946 2.3252 -7.8375 -8.6239 -16.5595 54.7801 1.3308 -22.2345 2.3432 -2.8536 10.4543 -30.4607 0.5782 0.1150 18.4366 1.4234 0.7081 6.4600 1.0205 0.5031 -3.4004 11.0741 3.6996 0.4773 -10.1479 4.8643 -3.3195 -4.8602 2.4447 -0.5231 -0.0000 -0.0000 0.0000 -39.5260 -22.6863 9.3603 150.7492 -40.2425 -109.0776 -0.0000 0.0000 -33.1764 37.8374 12.9580 9.8801 -7.1250 0.0000 -0.0000 9.9712 45.9808 0.2438 -0.0000 -0.0000 0.0000 17.7410 16.8654 23.9638 -119.7573 56.3743 -85.4569 0.0000 -0.0000 -48.0573 -20.5482 -4.7686 1.7849 7.1250 -0.0000 -0.0000 5.0776 -35.0346 1.2467
-5.0656 16.0430 0.6016 -84.6380 86.1169 -76.1967 0.0000 0.0000 0.0000 -14.1091 -2.7296 -7.9222 8.8208 16.6910 55.4685 -0.0252 9.1074 5.9098 0.0711 -1.7200 -4.7325 0.0000 0.0000 0.0000 29.2607 4.7805 -10.3562 -9.5078 -17.1236 57.8303 1.3407 -22.1952 2.1046 -2.9750 10.6545 -31.1233 1.2178 -0.1597 16.8102 1.2291 0.3844 6.2913 0.5241 0.3375 -2.7185 10.4809 3.9233 -1.0858 -9.0411 5.0929 -1.7373 -4.3646 2.5220 0.1720 0.0000 0.0000 0.0000 -38.5347 -17.4525 7.8605 154.0563 -37.1531 -111.1464 -0.0000 0.0000 -30.8290 39.8094 12.0570 9.8759 -7.1250 0.0000 -0.0000 11.8145 45.1838 0.0544 0.0000 0.0000 0.0000 16.5754 10.4158 24.9615 -120.0031 56.3091 -85.6615 0.0000 -0.0000 -47.9714 -20.0058 -5.9385 2.1572 7.1250 -0.0000 -0.0000 5.6458 -36.2474 1.2198
